<?xml version="1.0" ?><!DOCTYPE svg  PUBLIC '-//W3C//DTD SVG 1.1//EN'  'http://www.w3.org/Graphics/SVG/1.1/DTD/svg11.dtd'><svg enable-background="new 0 0 128 128" id="Слой_1" version="1.1" viewBox="0 0 128 128" xml:space="preserve" xmlns="http://www.w3.org/2000/svg" xmlns:xlink="http://www.w3.org/1999/xlink"><g><g><g><ellipse cx="64" cy="94" fill="#B9D53C" rx="60" ry="30"/></g></g></g><g opacity="0.2"><g><g><path d="M112.9,76.6C102,69,84.2,64,64,64c-3.3,0-6.6,0.1-9.8,0.4C40.5,83.5,44.8,99,64,99     C78.9,99,98.3,89.7,112.9,76.6z" fill="#62345B"/></g></g></g><g><g><g><g><circle cx="64" cy="64" fill="#FFFFFF" r="35"/></g></g></g><g><g><g><path d="M52.4,31L64,39.5l11.7-8.4l0-0.1c-3.6-1.3-7.6-2-11.6-2C59.9,29,56,29.7,52.4,31z" fill="#636067"/></g></g></g><g><g><g><path d="M35.6,84.4c4.5,6.3,11.1,11,18.7,13.2l0.4-0.3l-5-13.5L35.6,84.4z" fill="#636067"/></g></g></g><g><g><g><path d="M37.1,42.7l-0.9,0C31.7,48.6,29,56,29,64c0,0.1,0,0.2,0,0.4l0.7,0.5l11.7-8.4L37.1,42.7z" fill="#636067"/></g></g></g><g><path d="M34,64c0-18.5,14.3-33.6,32.5-34.9C65.7,29,64.8,29,64,29c-19.3,0-35,15.7-35,35s15.7,35,35,35    c0.8,0,1.7,0,2.5-0.1C48.3,97.6,34,82.5,34,64z" fill="#FFFFFF"/></g><g><g><g><path d="M29.7,66.4c-0.3,0-0.6-0.1-0.9-0.3c0,0-0.6-3.6,0.2-3.6c0.4,0,0.7,0.1,1,0.3l9.7-6.9L36,44.2      c-0.7-0.1,1.1-3,1.1-3c0.6,0,1.2,0.4,1.4,1l4.3,13.8c0.2,0.6,0,1.3-0.6,1.7l-11.7,8.4C30.3,66.3,30,66.4,29.7,66.4z" fill="#62355C"/></g></g></g><g><g><g><path d="M92,43l-0.2,0L87,56.6l11.5,8.8l0.5-0.3c0-0.4,0-0.7,0-1.1C99,56.1,96.4,48.9,92,43z" fill="#636067"/></g></g></g><g><g><g><path d="M98.5,66.9c-0.3,0-0.6-0.1-0.9-0.3l-11.5-8.8c-0.5-0.4-0.7-1.1-0.5-1.7l4.8-13.6      c0.2-0.6,2.9,1.3,2.6,1.6l-4.2,12l9,6.9c0.3-0.3,0.7-0.5,1.1-0.5c0.8,0,0.3,4.1,0.3,4.1C99.1,66.8,98.8,66.9,98.5,66.9z" fill="#62355C"/></g></g></g><g><g><g><path d="M64,41c-0.3,0-0.6-0.1-0.9-0.3l-11.6-8.5c-0.7-0.5-0.8-1.4-0.3-2.1c0.5-0.7,1.4-0.8,2.1-0.3L64,37.6      L74.6,30c0.2-0.2,0.4-0.3,0.6-0.4c0.8-0.3,1.6,0.1,1.9,0.9c0.2,0.6,0,1.4-0.5,1.7l-11.7,8.4C64.6,40.9,64.3,41,64,41z" fill="#62355C"/></g></g></g><g><g><g><path d="M54.3,99.1c-0.4,0-0.9-0.2-1.2-0.6c-0.4-0.5-0.4-1.1-0.2-1.6l-4.3-11.6l-12.9,0.6      c-0.8,0-1.5-0.6-1.6-1.4c0-0.8,0.6-1.5,1.4-1.6l14-0.6c0.6,0,1.2,0.4,1.5,1l5,13.5c0.2,0.6,0,1.3-0.5,1.7l-0.4,0.3      C54.9,99,54.6,99.1,54.3,99.1z" fill="#62355C"/></g></g></g><g><g><g><path d="M92.9,83.8L92.9,83.8l-14.4-0.2l-4.6,13.7l0.3,0.2C81.8,95.2,88.4,90.3,92.9,83.8z" fill="#636067"/></g></g></g><g><g><g><path d="M74.1,99c-0.3,0-0.6-0.1-0.9-0.3l-0.3-0.2c-0.5-0.4-0.7-1.1-0.5-1.7L77,83.2c0.2-0.6,0.7-1,1.4-1      l14.4,0.1c0.7,0,1.2,0.4,1.4,1.1c0.2,0.8-0.2,1.6-1,1.9c-0.2,0.1-0.4,0.1-0.6,0.1l-13.2-0.1l-4,11.9c0.2,0.5,0.1,1-0.2,1.4      C75,98.8,74.6,99,74.1,99z" fill="#62355C"/></g></g></g><g><g><g><path d="M64,100.5c-20.1,0-36.5-16.4-36.5-36.5S43.9,27.5,64,27.5s36.5,16.4,36.5,36.5S84.1,100.5,64,100.5z       M64,30.5c-18.5,0-33.5,15-33.5,33.5s15,33.5,33.5,33.5s33.5-15,33.5-33.5S82.5,30.5,64,30.5z" fill="#62355C"/></g></g></g><g><g><g><polygon fill="#636067" points="55.6,74.6 50.4,58.6 64,48.7 77.6,58.6 72.4,74.6     "/></g></g></g><g><g><g><path d="M72.4,76.1H55.6c-0.6,0-1.2-0.4-1.4-1l-5.2-16c-0.2-0.6,0-1.3,0.5-1.7l13.6-9.9c0.5-0.4,1.2-0.4,1.8,0      l13.6,9.9c0.5,0.4,0.7,1.1,0.5,1.7l-5.2,16C73.6,75.7,73.1,76.1,72.4,76.1z M56.7,73.1h14.6l4.5-13.9L64,50.6l-11.8,8.6      L56.7,73.1z" fill="#62355C"/></g></g></g><g><g><g><path d="M78.4,85.1c-0.5,0-1-0.2-1.2-0.7l-6-9c-0.5-0.7-0.3-1.6,0.4-2.1c0.7-0.5,1.6-0.3,2.1,0.4l6,9      c0.5,0.7,0.3,1.6-0.4,2.1C79,85.1,78.7,85.1,78.4,85.1z" fill="#62355C"/></g></g></g><g><g><g><path d="M49.6,85.3c-0.3,0-0.6-0.1-0.8-0.2c-0.7-0.5-0.9-1.4-0.4-2.1l6-9.2c0.5-0.7,1.4-0.9,2.1-0.4      c0.7,0.5,0.9,1.4,0.4,2.1l-6,9.2C50.5,85.1,50.1,85.3,49.6,85.3z" fill="#62355C"/></g></g></g><g><g><g><path d="M64,50.2c-0.8,0-1.5-0.7-1.5-1.5l0-9.2c0-0.8,0.7-1.5,1.5-1.5c0.8,0,1.5,0.7,1.5,1.5l0,9.2      C65.5,49.5,64.8,50.2,64,50.2C64,50.2,64,50.2,64,50.2z" fill="#62355C"/></g></g></g><g><g><g><path d="M77.6,60.1c-0.7,0-1.3-0.5-1.5-1.2c-0.2-0.8,0.3-1.6,1.2-1.8l9.4-2c0.8-0.2,1.6,0.3,1.8,1.2      c0.2,0.8-0.3,1.6-1.2,1.8l-9.4,2C77.8,60.1,77.7,60.1,77.6,60.1z" fill="#62355C"/></g></g></g><g><g><g><path d="M50.4,60.1c-0.1,0-0.2,0-0.3,0L41.1,58c-0.8-0.2-1.3-1-1.1-1.8c0.2-0.8,1-1.3,1.8-1.1l8.9,2.1      c0.8,0.2,1.3,1,1.1,1.8C51.7,59.6,51.1,60.1,50.4,60.1z" fill="#62355C"/></g></g></g></g></svg>